<svg xmlns="http://www.w3.org/2000/svg" xmlns:xlink="http://www.w3.org/1999/xlink" width="500" zoomAndPan="magnify" viewBox="0 0 375 225" height="300" preserveAspectRatio="xMidYMid meet" version="1.0"><path stroke-linecap="butt" transform="matrix(1.441259, 0, 0, 1.441259, -44.823913, -43.9398)" fill="none" stroke-linejoin="miter" d="M 101.403066 111.067105 C 101.403066 119.796992 98.020608 126.727236 91.258402 131.85242 C 84.515168 136.977603 76.500802 139.541549 67.207173 139.541549 C 60.675342 139.541549 51.032084 138.053593 38.277398 135.083101 C 38.182537 132.974485 38.136462 129.627261 38.136462 125.041428 C 38.136462 120.428492 38.57011 113.991522 39.434697 105.730519 C 42.220889 105.730519 45.438018 106.023231 49.091507 106.608657 C 49.091507 106.982679 49.091507 107.416327 49.091507 107.906892 C 49.091507 121.902897 55.363148 128.90361 67.909141 128.90361 C 72.028802 128.90361 75.259483 128.01463 77.598475 126.233961 C 79.964569 124.456002 81.146261 121.916449 81.146261 118.615299 C 81.146261 115.31415 80.091953 112.378892 77.986048 109.804104 C 75.880143 107.204923 73.210494 105.085466 69.979813 103.448443 C 66.773524 101.80871 63.298916 99.935891 59.553277 97.829985 C 55.832031 95.72408 52.354712 93.547706 49.126741 91.300865 C 45.917742 89.054024 43.261645 85.964278 41.15574 82.031629 C 39.049834 78.098979 37.995526 73.54567 37.995526 68.374411 C 37.995526 60.018547 41.039197 53.546343 47.123827 48.9578 C 53.211168 44.347575 60.572351 42.041107 69.207376 42.041107 C 77.845112 42.041107 86.951731 43.434203 96.524521 46.217684 C 96.524521 53.405408 95.857786 61.796506 94.521607 71.393689 C 91.925137 71.393689 89.431658 71.241912 87.043881 70.935648 C 85.311997 58.389655 79.845316 52.118014 70.646547 52.118014 C 66.808758 52.118014 63.591628 53.031386 60.992448 54.85542 C 58.41766 56.657771 57.130266 59.15125 57.130266 62.333146 C 57.130266 65.493359 58.230649 68.350019 60.431415 70.900414 C 62.632181 73.429127 65.358746 75.488957 68.61111 77.079905 C 71.887866 78.64917 75.446494 80.462363 79.284283 82.522193 C 83.124783 84.582024 86.669859 86.687929 89.922223 88.84262 C 93.177297 90.994601 95.903862 93.992196 98.104628 97.829985 C 100.302683 101.670485 101.403066 106.080148 101.403066 111.067105 Z M 177.044915 116.403692 L 177.782117 109.486999 L 177.782117 109.066902 C 178.836425 108.972041 180.321671 108.925966 182.240566 108.925966 C 184.15946 108.925966 186.03228 109.159052 187.859024 109.627934 C 188.327906 115.948361 188.560993 121.458407 188.560993 126.163493 C 188.560993 130.86858 188.514917 134.660294 188.420057 137.538635 L 113.496439 137.538635 C 113.496439 136.86106 113.496439 135.760677 113.496439 134.240197 C 113.496439 132.695324 113.789152 131.05559 114.374577 129.323707 C 117.347779 128.854824 119.594621 128.025472 121.115101 126.830228 C 122.659973 125.613302 123.43241 123.567023 123.43241 120.685971 L 123.43241 53.69812 C 121.02024 52.643812 117.616099 52.118014 113.214567 52.118014 C 113.214567 51.532588 113.214567 50.548748 113.214567 49.169204 C 113.214567 47.762557 113.450364 46.055066 113.916536 44.04131 L 187.400983 44.04131 C 187.400983 46.055066 187.400983 49.483599 187.400983 54.329621 C 187.400983 59.175643 187.121822 64.664007 186.560789 70.794712 C 184.24348 70.984433 181.02364 71.076584 176.903979 71.076584 C 176.248086 63.98372 175.489201 59.584899 174.621904 57.874697 C 173.171892 54.597941 170.198689 52.960918 165.705007 52.960918 L 146.429331 52.960918 L 146.429331 86.172972 L 165.423135 84.172768 L 171.743562 84.172768 L 171.743562 96.846145 L 165.423135 96.846145 L 146.429331 95.54791 L 146.429331 128.480803 L 165.845943 128.480803 C 169.40186 128.480803 172.08235 127.429205 173.884701 125.320589 C 174.657138 124.456002 175.323872 123.038514 175.887615 121.073544 C 176.470331 119.105864 176.857904 117.55015 177.044915 116.403692 Z M 224.239422 95.406974 L 244.637163 95.406974 L 234.140159 60.018547 L 233.121085 65.038028 Z M 242.214152 137.538635 C 242.214152 134.074868 242.355088 131.337462 242.636959 129.323707 C 247.225502 128.272109 250.911515 127.076866 253.694996 125.743396 L 247.656441 105.307711 L 221.220144 105.307711 L 214.723548 127.464439 C 216.924314 128.703047 220.810889 129.323707 226.380562 129.323707 C 226.380562 132.202049 226.193551 134.942165 225.819529 137.538635 L 193.588605 137.538635 C 193.588605 136.95592 193.588605 135.97208 193.588605 134.589826 C 193.588605 133.185889 193.72954 131.429612 194.008702 129.323707 C 196.889754 128.45912 199.066127 127.309952 200.540532 125.884332 C 202.036619 124.43161 203.267097 122.417855 204.226544 119.843067 L 228.838806 44.182246 C 234.665958 43.035788 242.379481 42.369053 251.976664 42.182043 L 276.412756 120.265874 C 277.583607 123.729641 278.85745 126.082184 280.239704 127.323503 C 281.619248 128.562112 283.950109 129.231556 287.226865 129.323707 C 287.226865 130.96344 287.026303 133.700846 286.630599 137.538635 Z M 242.214152 137.538635 " stroke="#8a8ef8" stroke-width="2.067341" stroke-opacity="1" stroke-miterlimit="4"/><path stroke-linecap="butt" transform="matrix(1.441259, 0, 0, 1.441259, 21.194708, 132.891655)" fill="none" stroke-linejoin="miter" d="M 27.276909 55.13227 C 23.967629 55.13227 20.997137 53.953289 18.365433 51.595325 C 15.74186 49.237361 14.430073 45.852193 14.430073 41.44253 C 14.430073 37.022025 15.915319 33.455267 18.891232 30.747674 C 21.877986 28.037371 25.49082 26.682219 29.729734 26.682219 C 32.307232 26.682219 34.857627 27.2297 37.38905 28.321952 C 37.348396 30.384493 37.036711 33.208629 36.445865 36.79436 C 35.714083 36.79436 34.995853 36.694079 34.293884 36.493516 C 34.093322 34.783315 33.564813 33.441715 32.711067 32.471426 C 31.854611 31.493007 30.803014 31.002442 29.558985 31.002442 C 25.900076 31.002442 24.067911 34.11116 24.067911 40.328595 C 24.067911 46.537899 26.035591 49.641196 29.973661 49.641196 C 32.074146 49.641196 34.564914 49.074743 37.445967 47.944547 L 38.784856 50.055873 C 37.310451 51.565512 35.554175 52.793279 33.507896 53.733754 C 31.464328 54.666098 29.388236 55.13227 27.276909 55.13227 Z M 54.154985 19.53786 C 54.154985 20.955349 53.66713 22.161434 52.688711 23.161535 C 51.718423 24.148086 50.520469 24.644071 49.094849 24.644071 C 47.677361 24.644071 46.460435 24.148086 45.444071 23.161535 C 44.435838 22.161434 43.931722 20.955349 43.931722 19.53786 C 43.931722 18.112241 44.435838 16.906156 45.444071 15.916895 C 46.460435 14.916794 47.677361 14.418098 49.094849 14.418098 C 50.520469 14.418098 51.718423 14.916794 52.688711 15.916895 C 53.66713 16.906156 54.154985 18.112241 54.154985 19.53786 Z M 56.895101 51.039713 C 56.895101 51.278219 56.895101 51.665793 56.895101 52.207853 C 56.895101 52.749914 56.819213 53.473565 56.667436 54.376096 L 40.595339 54.376096 C 40.595339 54.061701 40.595339 53.60637 40.595339 53.007393 C 40.595339 52.397575 40.69562 51.741681 40.893472 51.039713 C 42.102267 50.849992 43.015639 50.511204 43.633589 50.026059 C 44.259669 49.532784 44.574064 48.725114 44.574064 47.603049 L 44.574064 32.471426 C 43.983218 32.387407 43.346296 32.344042 42.6633 32.344042 C 41.988435 32.344042 41.316279 32.368435 40.652255 32.41451 C 40.736275 31.045807 40.912444 29.953555 41.180764 29.135043 C 44.964347 27.85307 49.113821 27.115868 53.629186 26.926146 L 53.629186 50.454287 C 54.56153 50.844571 55.648362 51.039713 56.895101 51.039713 Z M 91.597822 35.908091 L 91.597822 50.397371 C 93.186059 50.825599 94.487005 51.039713 95.503369 51.039713 C 95.503369 51.278219 95.503369 51.682055 95.503369 52.251218 C 95.503369 52.812251 95.408508 53.51964 95.218787 54.376096 L 79.390617 54.376096 C 79.341831 54.061701 79.320149 53.633473 79.320149 53.091412 C 79.320149 52.541221 79.42043 51.855514 79.618282 51.039713 C 80.626515 50.849992 81.363718 50.522045 81.82989 50.055873 C 82.304193 49.578859 82.542699 48.763058 82.542699 47.603049 L 82.542699 37.078942 C 82.542699 35.566593 82.19036 34.430976 81.485681 33.66938 C 80.783713 32.910496 79.86492 32.528343 78.734724 32.528343 C 76.482462 32.528343 74.731606 34.279199 73.487577 37.7782 L 73.487577 50.454287 C 74.417211 50.844571 75.506753 51.039713 76.753492 51.039713 C 76.753492 51.278219 76.753492 51.665793 76.753492 52.207853 C 76.753492 52.749914 76.677604 53.473565 76.523116 54.376096 L 60.453729 54.376096 C 60.453729 54.061701 60.453729 53.60637 60.453729 53.007393 C 60.453729 52.397575 60.554011 51.741681 60.751863 51.039713 C 61.960658 50.849992 62.87132 50.511204 63.489269 50.026059 C 64.118059 49.532784 64.432454 48.725114 64.432454 47.603049 L 64.432454 32.528343 C 63.841608 32.452454 63.204687 32.41451 62.521691 32.41451 C 61.846825 32.41451 61.17467 32.433482 60.510646 32.471426 C 60.594665 31.102723 60.770835 30.029443 61.036445 29.248876 C 64.584231 27.966903 68.457254 27.210728 72.660934 26.983063 C 73.010563 28.882985 73.24907 30.633841 73.373744 32.23021 C 75.235722 28.530646 78.292944 26.682219 82.542699 26.682219 C 85.261133 26.682219 87.448348 27.500731 89.101633 29.135043 C 90.765759 30.769356 91.597822 33.029749 91.597822 35.908091 Z M 112.206966 31.002442 C 109.754142 31.002442 108.233662 33.12732 107.642816 37.377075 L 112.206966 37.022025 L 114.83054 36.908193 C 114.792596 32.970122 113.919878 31.002442 112.206966 31.002442 Z M 107.472067 40.529158 L 107.472067 40.64299 C 107.472067 46.681545 109.729749 49.698113 114.247825 49.698113 C 116.62205 49.698113 119.332353 49.115398 122.376024 47.944547 L 123.714913 50.055873 C 120.408343 53.441041 116.394385 55.13227 111.678457 55.13227 C 108.447776 55.13227 105.409526 54.042729 102.566418 51.866355 C 101.170612 50.812047 100.029575 49.389138 99.146016 47.603049 C 98.270588 45.806118 97.834229 43.800493 97.834229 41.583465 C 97.834229 37.0681 99.292372 33.455267 102.211369 30.747674 C 105.138496 28.037371 108.705255 26.682219 112.906225 26.682219 C 115.711388 26.682219 118.164213 27.462786 120.264697 29.021211 C 122.679577 30.769356 123.885662 33.807606 123.885662 38.13325 C 123.573977 39.065594 123.183694 39.865133 122.717522 40.529158 Z M 176.275821 35.908091 L 176.275821 50.397371 C 177.834245 50.825599 179.121639 51.039713 180.140713 51.039713 C 180.140713 51.278219 180.140713 51.682055 180.140713 52.251218 C 180.140713 52.812251 180.040432 53.51964 179.839869 54.376096 L 164.011699 54.376096 C 163.973755 54.061701 163.954783 53.633473 163.954783 53.091412 C 163.954783 52.541221 164.055064 51.855514 164.252916 51.039713 C 165.261149 50.849992 165.998351 50.522045 166.464524 50.055873 C 166.930696 49.578859 167.163782 48.763058 167.163782 47.603049 L 167.163782 37.078942 C 167.163782 34.046113 165.917042 32.528343 163.426274 32.528343 C 161.211956 32.528343 159.444839 34.279199 158.122211 37.7782 L 158.122211 50.454287 C 159.054555 50.844571 160.160359 51.039713 161.445042 51.039713 C 161.445042 51.278219 161.445042 51.682055 161.445042 52.251218 C 161.445042 52.812251 161.350182 53.51964 161.16046 54.376096 L 145.915006 54.376096 C 145.868931 54.061701 145.844538 53.633473 145.844538 53.091412 C 145.844538 52.541221 145.944819 51.855514 146.142671 51.039713 C 147.150904 50.849992 147.888106 50.522045 148.354278 50.055873 C 148.828581 49.578859 149.067088 48.763058 149.067088 47.603049 L 149.067088 37.078942 C 149.067088 35.566593 148.714749 34.430976 148.01278 33.66938 C 147.308101 32.910496 146.392019 32.528343 145.259112 32.528343 C 143.00685 32.528343 141.255995 34.279199 140.011966 37.7782 L 140.011966 50.454287 C 140.94431 50.844571 142.031141 51.039713 143.277881 51.039713 C 143.277881 51.278219 143.277881 51.665793 143.277881 52.207853 C 143.277881 52.749914 143.201992 53.473565 143.050215 54.376096 L 126.978118 54.376096 C 126.978118 54.061701 126.978118 53.60637 126.978118 53.007393 C 126.978118 52.397575 127.078399 51.741681 127.276251 51.039713 C 128.485047 50.849992 129.398419 50.511204 130.016368 50.026059 C 130.642448 49.532784 130.956843 48.725114 130.956843 47.603049 L 130.956843 32.528343 C 130.365997 32.452454 129.729076 32.41451 129.046079 32.41451 C 128.371214 32.41451 127.699059 32.433482 127.035034 32.471426 C 127.119054 31.102723 127.295224 30.029443 127.563544 29.248876 C 131.10862 27.966903 134.981643 27.210728 139.185323 26.983063 C 139.537663 28.882985 139.773459 30.633841 139.898133 32.23021 C 141.760111 28.530646 144.817333 26.682219 149.067088 26.682219 C 151.205517 26.682219 153.045813 27.210728 154.585265 28.265036 C 156.124717 29.311213 157.165474 30.810011 157.707534 32.758719 C 159.572223 28.706816 162.724305 26.682219 167.163782 26.682219 C 169.890347 26.682219 172.093823 27.500731 173.76608 29.135043 C 175.438337 30.769356 176.275821 33.029749 176.275821 35.908091 Z M 192.746332 46.776406 C 192.746332 47.630152 192.968577 48.323989 193.415777 48.857919 C 193.862977 49.381007 194.562235 49.641196 195.513552 49.641196 C 196.472999 49.641196 197.343006 49.175024 198.123574 48.24539 L 198.123574 41.813841 L 196.48113 42.33964 C 193.990361 43.120207 192.746332 44.597322 192.746332 46.776406 Z M 211.910885 51.394763 C 210.856577 52.641502 209.829373 53.576556 208.831981 54.205347 C 207.84272 54.823296 206.606822 55.13227 205.124286 55.13227 C 203.649882 55.13227 202.281179 54.831427 201.018177 54.23245 C 199.752466 53.625342 198.882458 52.793279 198.408155 51.738971 C 196.619355 53.999364 194.372514 55.13227 191.662211 55.13227 C 188.962749 55.13227 186.862264 54.424881 185.360756 53.007393 C 183.856538 51.581773 183.105784 49.755029 183.105784 47.52987 C 183.105784 43.480678 185.83506 40.914021 191.2909 39.829899 L 198.123574 38.49101 L 198.123574 36.737444 C 198.123574 34.19789 196.643748 32.929468 193.686808 32.929468 C 191.537537 32.929468 189.298827 33.319751 186.970677 34.097608 L 185.103278 31.360202 C 188.564335 28.240643 192.670444 26.682219 197.424315 26.682219 C 200.654997 26.682219 203.080718 27.544096 204.696059 29.265138 C 206.311399 30.975339 207.12178 33.403771 207.12178 36.550433 L 207.12178 46.890239 C 207.12178 48.801002 207.723467 49.755029 208.932262 49.755029 C 209.121983 49.755029 209.840214 49.641196 211.084243 49.413531 Z M 211.910885 51.394763 " stroke="#8a8ef8" stroke-width="1.715947" stroke-opacity="1" stroke-miterlimit="4"/></svg>