<svg xmlns="http://www.w3.org/2000/svg" xmlns:xlink="http://www.w3.org/1999/xlink" width="500" zoomAndPan="magnify" viewBox="0 0 375 225" height="300" preserveAspectRatio="xMidYMid meet" version="1.0"><defs><g/></defs><g fill="#ffffff" fill-opacity="1"><g transform="translate(-3.004336, 158.444504)"><g><path d="M 104.671875 -47.46875 C 104.671875 -34.894531 99.796875 -24.910156 90.046875 -17.515625 C 80.304688 -10.117188 68.738281 -6.421875 55.34375 -6.421875 C 45.945312 -6.421875 32.054688 -8.5625 13.671875 -12.84375 C 13.535156 -15.882812 13.46875 -20.722656 13.46875 -27.359375 C 13.46875 -33.992188 14.09375 -43.25 15.34375 -55.125 C 19.34375 -55.125 23.96875 -54.710938 29.21875 -53.890625 C 29.21875 -53.335938 29.21875 -52.71875 29.21875 -52.03125 C 29.21875 -31.851562 38.269531 -21.765625 56.375 -21.765625 C 62.3125 -21.765625 66.972656 -23.039062 70.359375 -25.59375 C 73.742188 -28.15625 75.4375 -31.816406 75.4375 -36.578125 C 75.4375 -41.347656 73.914062 -45.597656 70.875 -49.328125 C 67.84375 -53.054688 64.007812 -56.09375 59.375 -58.4375 C 54.75 -60.789062 49.738281 -63.488281 44.34375 -66.53125 C 38.957031 -69.570312 33.953125 -72.710938 29.328125 -75.953125 C 24.703125 -79.203125 20.867188 -83.660156 17.828125 -89.328125 C 14.785156 -94.992188 13.265625 -101.554688 13.265625 -109.015625 C 13.265625 -121.035156 17.648438 -130.363281 26.421875 -137 C 35.203125 -143.632812 45.804688 -146.953125 58.234375 -146.953125 C 70.671875 -146.953125 83.800781 -144.945312 97.625 -140.9375 C 97.625 -130.570312 96.65625 -118.484375 94.71875 -104.671875 C 90.988281 -104.671875 87.394531 -104.878906 83.9375 -105.296875 C 81.457031 -123.390625 73.582031 -132.4375 60.3125 -132.4375 C 54.789062 -132.4375 50.160156 -131.125 46.421875 -128.5 C 42.691406 -125.875 40.828125 -122.28125 40.828125 -117.71875 C 40.828125 -113.164062 42.414062 -109.054688 45.59375 -105.390625 C 48.769531 -101.734375 52.707031 -98.765625 57.40625 -96.484375 C 62.101562 -94.203125 67.21875 -91.578125 72.75 -88.609375 C 78.28125 -85.640625 83.394531 -82.597656 88.09375 -79.484375 C 92.789062 -76.378906 96.726562 -72.0625 99.90625 -66.53125 C 103.082031 -61 104.671875 -54.644531 104.671875 -47.46875 Z M 104.671875 -47.46875 "/></g></g></g><g fill="#ffffff" fill-opacity="1"><g transform="translate(110.575329, 158.444504)"><g><path d="M 100.109375 -39.796875 L 101.15625 -49.75 L 101.15625 -50.359375 C 102.664062 -50.503906 104.800781 -50.578125 107.5625 -50.578125 C 110.332031 -50.578125 113.03125 -50.226562 115.65625 -49.53125 C 116.34375 -40.414062 116.6875 -32.472656 116.6875 -25.703125 C 116.6875 -18.929688 116.617188 -13.472656 116.484375 -9.328125 L 8.5 -9.328125 C 8.5 -10.296875 8.5 -11.882812 8.5 -14.09375 C 8.5 -16.300781 8.914062 -18.648438 9.75 -21.140625 C 14.03125 -21.828125 17.273438 -23.035156 19.484375 -24.765625 C 21.691406 -26.492188 22.796875 -29.429688 22.796875 -33.578125 L 22.796875 -130.15625 C 19.347656 -131.675781 14.445312 -132.4375 8.09375 -132.4375 C 8.09375 -133.269531 8.09375 -134.6875 8.09375 -136.6875 C 8.09375 -138.695312 8.4375 -141.148438 9.125 -144.046875 L 115.03125 -144.046875 C 115.03125 -141.148438 115.03125 -136.210938 115.03125 -129.234375 C 115.03125 -122.253906 114.617188 -114.34375 113.796875 -105.5 C 110.472656 -105.21875 105.84375 -105.078125 99.90625 -105.078125 C 98.9375 -115.304688 97.832031 -121.664062 96.59375 -124.15625 C 94.519531 -128.851562 90.234375 -131.203125 83.734375 -131.203125 L 55.96875 -131.203125 L 55.96875 -83.328125 L 83.328125 -86.21875 L 92.4375 -86.21875 L 92.4375 -67.984375 L 83.328125 -67.984375 L 55.96875 -69.84375 L 55.96875 -22.390625 L 83.953125 -22.390625 C 89.054688 -22.390625 92.921875 -23.90625 95.546875 -26.9375 C 96.660156 -28.1875 97.628906 -30.226562 98.453125 -33.0625 C 99.285156 -35.894531 99.835938 -38.140625 100.109375 -39.796875 Z M 100.109375 -39.796875 "/></g></g></g><g fill="#ffffff" fill-opacity="1"><g transform="translate(234.5181, 158.444504)"><g><path d="M 44.15625 -70.0625 L 73.578125 -70.0625 L 58.453125 -121.046875 L 57 -113.78125 Z M 70.0625 -9.328125 C 70.0625 -14.296875 70.269531 -18.234375 70.6875 -21.140625 C 77.3125 -22.660156 82.628906 -24.390625 86.640625 -26.328125 L 77.9375 -55.75 L 39.796875 -55.75 L 30.46875 -23.828125 C 33.644531 -22.035156 39.242188 -21.140625 47.265625 -21.140625 C 47.265625 -16.992188 46.988281 -13.054688 46.4375 -9.328125 L 0 -9.328125 C 0 -10.160156 0 -11.578125 0 -13.578125 C 0 -15.578125 0.207031 -18.097656 0.625 -21.140625 C 4.769531 -22.378906 7.910156 -24.035156 10.046875 -26.109375 C 12.191406 -28.179688 13.957031 -31.085938 15.34375 -34.828125 L 50.78125 -143.84375 C 59.207031 -145.5 70.332031 -146.46875 84.15625 -146.75 L 119.390625 -34.203125 C 121.046875 -29.222656 122.875 -25.832031 124.875 -24.03125 C 126.882812 -22.238281 130.238281 -21.273438 134.9375 -21.140625 C 134.9375 -18.796875 134.660156 -14.859375 134.109375 -9.328125 Z M 70.0625 -9.328125 "/></g></g></g><g fill="#ffffff" fill-opacity="1"><g transform="translate(40.301204, 213.020128)"><g><path d="M 20.546875 -2.6875 C 15.773438 -2.6875 11.492188 -4.382812 7.703125 -7.78125 C 3.910156 -11.175781 2.015625 -16.054688 2.015625 -22.421875 C 2.015625 -28.796875 4.160156 -33.929688 8.453125 -37.828125 C 12.753906 -41.734375 17.960938 -43.6875 24.078125 -43.6875 C 27.785156 -43.6875 31.460938 -42.90625 35.109375 -41.34375 C 35.046875 -38.363281 34.597656 -34.289062 33.765625 -29.125 C 32.691406 -29.125 31.648438 -29.265625 30.640625 -29.546875 C 30.359375 -32.015625 29.597656 -33.953125 28.359375 -35.359375 C 27.128906 -36.765625 25.617188 -37.46875 23.828125 -37.46875 C 18.546875 -37.46875 15.90625 -32.988281 15.90625 -24.03125 C 15.90625 -15.082031 18.742188 -10.609375 24.421875 -10.609375 C 27.441406 -10.609375 31.03125 -11.421875 35.1875 -13.046875 L 37.125 -10.015625 C 34.988281 -7.828125 32.445312 -6.054688 29.5 -4.703125 C 26.5625 -3.359375 23.578125 -2.6875 20.546875 -2.6875 Z M 20.546875 -2.6875 "/></g></g></g><g fill="#ffffff" fill-opacity="1"><g transform="translate(78.017233, 213.020128)"><g><path d="M 21.5625 -54 C 21.5625 -51.957031 20.859375 -50.21875 19.453125 -48.78125 C 18.046875 -47.351562 16.316406 -46.640625 14.265625 -46.640625 C 12.222656 -46.640625 10.472656 -47.351562 9.015625 -48.78125 C 7.554688 -50.21875 6.828125 -51.957031 6.828125 -54 C 6.828125 -56.050781 7.554688 -57.789062 9.015625 -59.21875 C 10.472656 -60.65625 12.222656 -61.375 14.265625 -61.375 C 16.316406 -61.375 18.046875 -60.65625 19.453125 -59.21875 C 20.859375 -57.789062 21.5625 -56.050781 21.5625 -54 Z M 25.515625 -8.59375 C 25.515625 -8.25 25.515625 -7.679688 25.515625 -6.890625 C 25.515625 -6.109375 25.398438 -5.070312 25.171875 -3.78125 L 2.03125 -3.78125 C 2.03125 -4.238281 2.03125 -4.898438 2.03125 -5.765625 C 2.03125 -6.640625 2.171875 -7.582031 2.453125 -8.59375 C 4.191406 -8.875 5.507812 -9.363281 6.40625 -10.0625 C 7.300781 -10.757812 7.75 -11.921875 7.75 -13.546875 L 7.75 -35.359375 C 6.90625 -35.472656 5.992188 -35.53125 5.015625 -35.53125 C 4.035156 -35.53125 3.066406 -35.5 2.109375 -35.4375 C 2.222656 -37.40625 2.476562 -38.976562 2.875 -40.15625 C 8.3125 -42.007812 14.285156 -43.078125 20.796875 -43.359375 L 20.796875 -9.421875 C 22.148438 -8.867188 23.722656 -8.59375 25.515625 -8.59375 Z M 25.515625 -8.59375 "/></g></g></g><g fill="#ffffff" fill-opacity="1"><g transform="translate(106.641, 213.020128)"><g><path d="M 46.90625 -30.390625 L 46.90625 -9.515625 C 49.195312 -8.898438 51.078125 -8.59375 52.546875 -8.59375 C 52.546875 -8.25 52.546875 -7.671875 52.546875 -6.859375 C 52.546875 -6.046875 52.40625 -5.019531 52.125 -3.78125 L 29.296875 -3.78125 C 29.242188 -4.238281 29.21875 -4.859375 29.21875 -5.640625 C 29.21875 -6.421875 29.359375 -7.40625 29.640625 -8.59375 C 31.097656 -8.875 32.160156 -9.347656 32.828125 -10.015625 C 33.503906 -10.691406 33.84375 -11.867188 33.84375 -13.546875 L 33.84375 -28.703125 C 33.84375 -30.890625 33.335938 -32.53125 32.328125 -33.625 C 31.316406 -34.726562 30 -35.28125 28.375 -35.28125 C 25.125 -35.28125 22.597656 -32.753906 20.796875 -27.703125 L 20.796875 -9.421875 C 22.148438 -8.867188 23.722656 -8.59375 25.515625 -8.59375 C 25.515625 -8.25 25.515625 -7.679688 25.515625 -6.890625 C 25.515625 -6.109375 25.398438 -5.070312 25.171875 -3.78125 L 2.03125 -3.78125 C 2.03125 -4.238281 2.03125 -4.898438 2.03125 -5.765625 C 2.03125 -6.640625 2.171875 -7.582031 2.453125 -8.59375 C 4.191406 -8.875 5.507812 -9.363281 6.40625 -10.0625 C 7.300781 -10.757812 7.75 -11.921875 7.75 -13.546875 L 7.75 -35.28125 C 6.90625 -35.382812 5.992188 -35.4375 5.015625 -35.4375 C 4.035156 -35.4375 3.066406 -35.410156 2.109375 -35.359375 C 2.222656 -37.328125 2.476562 -38.867188 2.875 -39.984375 C 7.976562 -41.835938 13.5625 -42.929688 19.625 -43.265625 C 20.125 -40.515625 20.457031 -37.992188 20.625 -35.703125 C 23.320312 -41.023438 27.726562 -43.6875 33.84375 -43.6875 C 37.78125 -43.6875 40.941406 -42.507812 43.328125 -40.15625 C 45.710938 -37.800781 46.90625 -34.546875 46.90625 -30.390625 Z M 46.90625 -30.390625 "/></g></g></g><g fill="#ffffff" fill-opacity="1"><g transform="translate(160.52104, 213.020128)"><g><path d="M 22.734375 -37.46875 C 19.191406 -37.46875 17 -34.40625 16.15625 -28.28125 L 22.734375 -28.796875 L 26.515625 -28.953125 C 26.460938 -34.628906 25.203125 -37.46875 22.734375 -37.46875 Z M 15.90625 -23.734375 L 15.90625 -23.578125 C 15.90625 -14.878906 19.160156 -10.53125 25.671875 -10.53125 C 29.097656 -10.53125 33 -11.367188 37.375 -13.046875 L 39.3125 -10.015625 C 34.539062 -5.128906 28.757812 -2.6875 21.96875 -2.6875 C 17.3125 -2.6875 12.9375 -4.257812 8.84375 -7.40625 C 6.820312 -8.925781 5.175781 -10.972656 3.90625 -13.546875 C 2.644531 -16.128906 2.015625 -19.019531 2.015625 -22.21875 C 2.015625 -28.726562 4.117188 -33.929688 8.328125 -37.828125 C 12.546875 -41.734375 17.679688 -43.6875 23.734375 -43.6875 C 27.773438 -43.6875 31.3125 -42.566406 34.34375 -40.328125 C 37.820312 -37.796875 39.5625 -33.414062 39.5625 -27.1875 C 39.113281 -25.84375 38.554688 -24.691406 37.890625 -23.734375 Z M 15.90625 -23.734375 "/></g></g></g><g fill="#ffffff" fill-opacity="1"><g transform="translate(202.53064, 213.020128)"><g><path d="M 73.078125 -30.390625 L 73.078125 -9.515625 C 75.328125 -8.898438 77.179688 -8.59375 78.640625 -8.59375 C 78.640625 -8.25 78.640625 -7.671875 78.640625 -6.859375 C 78.640625 -6.046875 78.5 -5.019531 78.21875 -3.78125 L 55.40625 -3.78125 C 55.34375 -4.238281 55.3125 -4.859375 55.3125 -5.640625 C 55.3125 -6.421875 55.453125 -7.40625 55.734375 -8.59375 C 57.191406 -8.875 58.257812 -9.347656 58.9375 -10.015625 C 59.613281 -10.691406 59.953125 -11.867188 59.953125 -13.546875 L 59.953125 -28.703125 C 59.953125 -33.085938 58.15625 -35.28125 54.5625 -35.28125 C 51.363281 -35.28125 48.8125 -32.753906 46.90625 -27.703125 L 46.90625 -9.421875 C 48.25 -8.867188 49.847656 -8.59375 51.703125 -8.59375 C 51.703125 -8.25 51.703125 -7.671875 51.703125 -6.859375 C 51.703125 -6.046875 51.5625 -5.019531 51.28125 -3.78125 L 29.296875 -3.78125 C 29.242188 -4.238281 29.21875 -4.859375 29.21875 -5.640625 C 29.21875 -6.421875 29.359375 -7.40625 29.640625 -8.59375 C 31.097656 -8.875 32.160156 -9.347656 32.828125 -10.015625 C 33.503906 -10.691406 33.84375 -11.867188 33.84375 -13.546875 L 33.84375 -28.703125 C 33.84375 -30.890625 33.335938 -32.53125 32.328125 -33.625 C 31.316406 -34.726562 30 -35.28125 28.375 -35.28125 C 25.125 -35.28125 22.597656 -32.753906 20.796875 -27.703125 L 20.796875 -9.421875 C 22.148438 -8.867188 23.722656 -8.59375 25.515625 -8.59375 C 25.515625 -8.25 25.515625 -7.679688 25.515625 -6.890625 C 25.515625 -6.109375 25.398438 -5.070312 25.171875 -3.78125 L 2.03125 -3.78125 C 2.03125 -4.238281 2.03125 -4.898438 2.03125 -5.765625 C 2.03125 -6.640625 2.171875 -7.582031 2.453125 -8.59375 C 4.191406 -8.875 5.507812 -9.363281 6.40625 -10.0625 C 7.300781 -10.757812 7.75 -11.921875 7.75 -13.546875 L 7.75 -35.28125 C 6.90625 -35.382812 5.992188 -35.4375 5.015625 -35.4375 C 4.035156 -35.4375 3.066406 -35.410156 2.109375 -35.359375 C 2.222656 -37.328125 2.476562 -38.867188 2.875 -39.984375 C 7.976562 -41.835938 13.5625 -42.929688 19.625 -43.265625 C 20.125 -40.515625 20.457031 -37.992188 20.625 -35.703125 C 23.320312 -41.023438 27.726562 -43.6875 33.84375 -43.6875 C 36.9375 -43.6875 39.585938 -42.925781 41.796875 -41.40625 C 44.015625 -39.894531 45.519531 -37.738281 46.3125 -34.9375 C 49 -40.769531 53.546875 -43.6875 59.953125 -43.6875 C 63.878906 -43.6875 67.046875 -42.507812 69.453125 -40.15625 C 71.867188 -37.800781 73.078125 -34.546875 73.078125 -30.390625 Z M 73.078125 -30.390625 "/></g></g></g><g fill="#ffffff" fill-opacity="1"><g transform="translate(283.434884, 213.020128)"><g><path d="M 15.90625 -14.734375 C 15.90625 -13.492188 16.226562 -12.492188 16.875 -11.734375 C 17.519531 -10.984375 18.53125 -10.609375 19.90625 -10.609375 C 21.28125 -10.609375 22.53125 -11.28125 23.65625 -12.625 L 23.65625 -21.890625 L 21.296875 -21.125 C 17.703125 -20.007812 15.90625 -17.878906 15.90625 -14.734375 Z M 43.53125 -8.078125 C 42.007812 -6.285156 40.53125 -4.9375 39.09375 -4.03125 C 37.664062 -3.132812 35.882812 -2.6875 33.75 -2.6875 C 31.625 -2.6875 29.648438 -3.117188 27.828125 -3.984375 C 26.003906 -4.859375 24.753906 -6.054688 24.078125 -7.578125 C 21.492188 -4.316406 18.25 -2.6875 14.34375 -2.6875 C 10.445312 -2.6875 7.414062 -3.710938 5.25 -5.765625 C 3.09375 -7.816406 2.015625 -10.441406 2.015625 -13.640625 C 2.015625 -19.472656 5.945312 -23.175781 13.8125 -24.75 L 23.65625 -26.6875 L 23.65625 -29.21875 C 23.65625 -32.863281 21.523438 -34.6875 17.265625 -34.6875 C 14.171875 -34.6875 10.941406 -34.125 7.578125 -33 L 4.890625 -36.953125 C 9.878906 -41.441406 15.796875 -43.6875 22.640625 -43.6875 C 27.304688 -43.6875 30.800781 -42.453125 33.125 -39.984375 C 35.457031 -37.515625 36.625 -34.007812 36.625 -29.46875 L 36.625 -14.5625 C 36.625 -11.8125 37.492188 -10.4375 39.234375 -10.4375 C 39.515625 -10.4375 40.550781 -10.601562 42.34375 -10.9375 Z M 43.53125 -8.078125 "/></g></g></g></svg>