<svg xmlns="http://www.w3.org/2000/svg" xmlns:xlink="http://www.w3.org/1999/xlink" width="500" zoomAndPan="magnify" viewBox="0 0 375 374.999991" height="500" preserveAspectRatio="xMidYMid meet" version="1.0"><path fill="#000000" d="M 187.585938 0 C 184.515625 0 181.449219 0.078125 178.386719 0.230469 C 175.320312 0.378906 172.261719 0.605469 169.207031 0.910156 C 166.152344 1.210938 163.109375 1.585938 160.074219 2.039062 C 157.035156 2.492188 154.015625 3.015625 151.003906 3.617188 C 147.996094 4.214844 145 4.886719 142.023438 5.636719 C 139.046875 6.382812 136.09375 7.199219 133.15625 8.09375 C 130.21875 8.984375 127.304688 9.949219 124.417969 10.984375 C 121.527344 12.019531 118.667969 13.121094 115.832031 14.296875 C 112.996094 15.472656 110.191406 16.71875 107.417969 18.03125 C 104.644531 19.34375 101.90625 20.722656 99.199219 22.171875 C 96.492188 23.621094 93.824219 25.132812 91.191406 26.710938 C 88.558594 28.289062 85.96875 29.933594 83.417969 31.636719 C 80.867188 33.34375 78.359375 35.109375 75.894531 36.941406 C 73.429688 38.769531 71.011719 40.65625 68.640625 42.605469 C 66.269531 44.550781 63.945312 46.558594 61.671875 48.617188 C 59.402344 50.679688 57.179688 52.796875 55.011719 54.96875 C 52.839844 57.136719 50.726562 59.359375 48.664062 61.636719 C 46.605469 63.910156 44.601562 66.234375 42.65625 68.605469 C 40.710938 70.980469 38.824219 73.398438 36.996094 75.863281 C 35.167969 78.328125 33.402344 80.839844 31.699219 83.390625 C 29.996094 85.941406 28.355469 88.535156 26.777344 91.167969 C 25.199219 93.800781 23.6875 96.46875 22.242188 99.175781 C 20.796875 101.882812 19.417969 104.625 18.109375 107.398438 C 16.796875 110.175781 15.554688 112.980469 14.382812 115.816406 C 13.207031 118.652344 12.105469 121.511719 11.070312 124.402344 C 10.039062 127.292969 9.078125 130.207031 8.1875 133.144531 C 7.296875 136.082031 6.480469 139.039062 5.734375 142.015625 C 4.988281 144.992188 4.320312 147.984375 3.722656 150.996094 C 3.125 154.003906 2.601562 157.027344 2.152344 160.0625 C 1.703125 163.101562 1.328125 166.144531 1.027344 169.199219 C 0.726562 172.253906 0.503906 175.3125 0.351562 178.378906 C 0.203125 181.441406 0.128906 184.511719 0.128906 187.578125 C 0.128906 190.648438 0.207031 193.714844 0.359375 196.78125 C 0.507812 199.84375 0.734375 202.90625 1.039062 205.957031 C 1.339844 209.011719 1.714844 212.058594 2.167969 215.09375 C 2.617188 218.128906 3.144531 221.152344 3.742188 224.160156 C 4.34375 227.171875 5.015625 230.164062 5.761719 233.140625 C 6.507812 236.117188 7.328125 239.074219 8.21875 242.011719 C 9.113281 244.945312 10.074219 247.859375 11.109375 250.75 C 12.144531 253.636719 13.25 256.5 14.425781 259.335938 C 15.601562 262.167969 16.84375 264.972656 18.15625 267.746094 C 19.46875 270.519531 20.851562 273.261719 22.296875 275.96875 C 23.746094 278.671875 25.257812 281.34375 26.835938 283.972656 C 28.414062 286.605469 30.058594 289.199219 31.761719 291.75 C 33.46875 294.300781 35.234375 296.808594 37.066406 299.273438 C 38.894531 301.734375 40.78125 304.15625 42.730469 306.527344 C 44.675781 308.898438 46.679688 311.21875 48.742188 313.492188 C 50.804688 315.765625 52.921875 317.988281 55.089844 320.15625 C 57.261719 322.328125 59.484375 324.441406 61.757812 326.503906 C 64.035156 328.5625 66.355469 330.566406 68.730469 332.511719 C 71.101562 334.457031 73.523438 336.34375 75.988281 338.171875 C 78.453125 340 80.960938 341.765625 83.515625 343.46875 C 86.066406 345.171875 88.660156 346.8125 91.289062 348.390625 C 93.921875 349.96875 96.59375 351.480469 99.300781 352.925781 C 102.007812 354.371094 104.746094 355.75 107.523438 357.0625 C 110.296875 358.371094 113.101562 359.617188 115.9375 360.789062 C 118.773438 361.960938 121.636719 363.066406 124.527344 364.097656 C 127.414062 365.132812 130.328125 366.09375 133.265625 366.984375 C 136.203125 367.875 139.160156 368.691406 142.136719 369.4375 C 145.113281 370.179688 148.109375 370.851562 151.117188 371.449219 C 154.128906 372.046875 157.152344 372.570312 160.1875 373.019531 C 163.222656 373.46875 166.265625 373.84375 169.320312 374.144531 C 172.375 374.445312 175.433594 374.671875 178.5 374.820312 C 181.566406 374.96875 184.632812 375.042969 187.703125 375.042969 C 190.769531 375.042969 193.835938 374.964844 196.902344 374.816406 C 199.96875 374.664062 203.027344 374.4375 206.082031 374.136719 C 209.136719 373.832031 212.179688 373.457031 215.214844 373.007812 C 218.25 372.554688 221.273438 372.03125 224.28125 371.429688 C 227.292969 370.832031 230.285156 370.15625 233.261719 369.410156 C 236.238281 368.664062 239.195312 367.847656 242.132812 366.953125 C 245.070312 366.0625 247.980469 365.097656 250.871094 364.066406 C 253.761719 363.03125 256.621094 361.925781 259.457031 360.75 C 262.292969 359.574219 265.097656 358.332031 267.871094 357.019531 C 270.644531 355.707031 273.382812 354.324219 276.089844 352.878906 C 278.796875 351.429688 281.464844 349.917969 284.097656 348.339844 C 286.730469 346.761719 289.320312 345.117188 291.871094 343.414062 C 294.421875 341.707031 296.929688 339.941406 299.394531 338.113281 C 301.859375 336.28125 304.277344 334.394531 306.648438 332.449219 C 309.023438 330.5 311.34375 328.496094 313.617188 326.433594 C 315.890625 324.371094 318.113281 322.257812 320.28125 320.085938 C 322.453125 317.914062 324.566406 315.691406 326.625 313.417969 C 328.6875 311.144531 330.691406 308.820312 332.636719 306.449219 C 334.582031 304.074219 336.46875 301.65625 338.296875 299.191406 C 340.125 296.726562 341.890625 294.214844 343.59375 291.664062 C 345.300781 289.113281 346.941406 286.519531 348.515625 283.886719 C 350.09375 281.253906 351.605469 278.585938 353.050781 275.878906 C 354.496094 273.171875 355.875 270.429688 357.1875 267.65625 C 358.5 264.882812 359.742188 262.078125 360.914062 259.242188 C 362.089844 256.40625 363.191406 253.542969 364.226562 250.652344 C 365.257812 247.765625 366.21875 244.851562 367.109375 241.914062 C 368 238.976562 368.820312 236.019531 369.5625 233.042969 C 370.308594 230.066406 370.980469 227.070312 371.578125 224.0625 C 372.175781 221.050781 372.699219 218.027344 373.148438 214.992188 C 373.597656 211.957031 373.972656 208.914062 374.273438 205.859375 C 374.574219 202.804688 374.800781 199.746094 374.949219 196.679688 C 375.097656 193.613281 375.171875 190.546875 375.171875 187.476562 C 375.167969 184.410156 375.085938 181.34375 374.929688 178.28125 C 374.773438 175.21875 374.539062 172.160156 374.234375 169.109375 C 373.925781 166.054688 373.546875 163.011719 373.089844 159.980469 C 372.636719 156.945312 372.105469 153.925781 371.503906 150.917969 C 370.898438 147.910156 370.222656 144.917969 369.472656 141.945312 C 368.722656 138.96875 367.902344 136.015625 367.007812 133.082031 C 366.113281 130.144531 365.148438 127.234375 364.109375 124.347656 C 363.070312 121.460938 361.964844 118.601562 360.789062 115.769531 C 359.609375 112.9375 358.363281 110.132812 357.050781 107.363281 C 355.734375 104.589844 354.355469 101.851562 352.90625 99.148438 C 351.457031 96.445312 349.941406 93.777344 348.363281 91.148438 C 346.785156 88.519531 345.140625 85.929688 343.433594 83.378906 C 341.730469 80.828125 339.960938 78.324219 338.132812 75.859375 C 336.304688 73.398438 334.414062 70.980469 332.46875 68.609375 C 330.519531 66.242188 328.515625 63.917969 326.457031 61.648438 C 324.394531 59.375 322.28125 57.15625 320.109375 54.988281 C 317.941406 52.816406 315.71875 50.703125 313.445312 48.644531 C 311.171875 46.585938 308.851562 44.582031 306.476562 42.636719 C 304.105469 40.691406 301.6875 38.804688 299.226562 36.976562 C 296.761719 35.148438 294.253906 33.382812 291.703125 31.675781 C 289.152344 29.972656 286.5625 28.332031 283.933594 26.753906 C 281.300781 25.175781 278.632812 23.664062 275.929688 22.214844 C 273.222656 20.769531 270.484375 19.390625 267.714844 18.078125 C 264.941406 16.761719 262.136719 15.519531 259.304688 14.34375 C 256.472656 13.167969 253.609375 12.0625 250.722656 11.027344 C 247.835938 9.992188 244.925781 9.027344 241.988281 8.132812 C 239.054688 7.242188 236.097656 6.421875 233.125 5.671875 C 230.148438 4.925781 227.15625 4.25 224.148438 3.648438 C 221.140625 3.046875 218.121094 2.519531 215.085938 2.066406 C 212.054688 1.613281 209.011719 1.234375 205.957031 0.929688 C 202.90625 0.625 199.847656 0.394531 196.785156 0.238281 C 193.71875 0.0859375 190.652344 0.00390625 187.585938 0 Z M 239.371094 345.699219 C 231.234375 347.359375 228.238281 342.355469 228.238281 338.039062 C 228.238281 332.539062 228.472656 315.058594 228.472656 293.289062 C 228.472656 278.1875 223.339844 268.304688 217.46875 263.277344 C 253.609375 259.199219 291.648438 245.453125 291.648438 182.992188 C 291.710938 178.988281 291.394531 175.011719 290.695312 171.070312 C 289.996094 167.128906 288.929688 163.285156 287.496094 159.546875 C 286.0625 155.808594 284.285156 152.242188 282.167969 148.84375 C 280.050781 145.445312 277.628906 142.277344 274.90625 139.339844 C 276.566406 135.261719 282.308594 118.628906 273.332031 96.1875 C 273.332031 96.1875 259.695312 91.742188 228.601562 112.800781 C 221.980469 111.019531 215.269531 109.679688 208.472656 108.777344 C 201.671875 107.878906 194.84375 107.429688 187.984375 107.429688 C 181.128906 107.429688 174.296875 107.878906 167.5 108.777344 C 160.699219 109.679688 153.988281 111.019531 147.367188 112.800781 C 116.277344 92.003906 102.617188 96.1875 102.617188 96.1875 C 93.769531 118.542969 99.402344 135.175781 101.0625 139.339844 C 98.359375 142.285156 95.957031 145.460938 93.855469 148.863281 C 91.753906 152.265625 89.992188 155.835938 88.570312 159.570312 C 87.148438 163.308594 86.089844 167.148438 85.398438 171.085938 C 84.703125 175.023438 84.386719 178.992188 84.449219 182.992188 C 84.449219 245.195312 122.253906 259.199219 158.371094 263.277344 C 153.710938 267.332031 149.394531 274.386719 147.972656 285.046875 C 138.628906 289.234375 115.304688 296.160156 100.71875 271.648438 C 97.613281 266.730469 88.507812 254.777344 75.710938 254.90625 C 62.074219 255.140625 70.210938 262.671875 75.839844 265.691406 C 82.765625 269.640625 90.664062 283.992188 92.585938 288.652344 C 95.800781 297.863281 106.328125 315.320312 147.128906 307.789062 C 147.128906 321.425781 147.367188 334.242188 147.367188 337.996094 C 147.367188 342.3125 144.390625 347.078125 136.234375 345.65625 C 133.21875 344.644531 130.238281 343.550781 127.289062 342.363281 C 124.339844 341.179688 121.429688 339.910156 118.554688 338.554688 C 115.679688 337.199219 112.847656 335.757812 110.058594 334.238281 C 107.265625 332.714844 104.523438 331.113281 101.828125 329.429688 C 99.132812 327.746094 96.488281 325.984375 93.894531 324.148438 C 91.300781 322.308594 88.765625 320.394531 86.285156 318.410156 C 83.804688 316.421875 81.386719 314.363281 79.027344 312.234375 C 76.667969 310.101562 74.371094 307.90625 72.140625 305.640625 C 69.914062 303.378906 67.75 301.050781 65.65625 298.660156 C 63.5625 296.265625 61.542969 293.816406 59.59375 291.308594 C 57.640625 288.796875 55.769531 286.230469 53.96875 283.613281 C 52.171875 280.992188 50.449219 278.320312 48.808594 275.601562 C 47.164062 272.878906 45.605469 270.113281 44.125 267.296875 C 42.644531 264.484375 41.25 261.632812 39.9375 258.738281 C 38.625 255.84375 37.398438 252.910156 36.261719 249.945312 C 35.121094 246.976562 34.066406 243.980469 33.105469 240.953125 C 32.140625 237.921875 31.265625 234.867188 30.480469 231.789062 C 29.699219 228.710938 29.003906 225.609375 28.402344 222.488281 C 27.800781 219.367188 27.289062 216.230469 26.871094 213.082031 C 26.453125 209.929688 26.128906 206.769531 25.894531 203.601562 C 25.664062 200.429688 25.523438 197.257812 25.476562 194.078125 C 25.429688 190.902344 25.476562 187.726562 25.617188 184.550781 C 25.757812 181.375 25.992188 178.207031 26.320312 175.046875 C 26.644531 171.882812 27.0625 168.734375 27.574219 165.597656 C 28.085938 162.460938 28.691406 159.34375 29.386719 156.242188 C 30.078125 153.140625 30.863281 150.0625 31.738281 147.003906 C 32.617188 143.949219 33.578125 140.921875 34.632812 137.925781 C 35.6875 134.925781 36.828125 131.960938 38.054688 129.027344 C 39.28125 126.097656 40.59375 123.203125 41.992188 120.347656 C 43.386719 117.496094 44.867188 114.683594 46.429688 111.917969 C 47.992188 109.148438 49.636719 106.429688 51.355469 103.757812 C 53.078125 101.085938 54.878906 98.46875 56.753906 95.902344 C 58.628906 93.335938 60.578125 90.828125 62.601562 88.378906 C 64.625 85.925781 66.71875 83.535156 68.882812 81.207031 C 71.046875 78.878906 73.277344 76.617188 75.574219 74.421875 C 77.871094 72.222656 80.230469 70.097656 82.648438 68.039062 C 85.070312 65.980469 87.550781 63.992188 90.089844 62.078125 C 92.628906 60.167969 95.21875 58.332031 97.867188 56.570312 C 100.511719 54.808594 103.207031 53.128906 105.953125 51.523438 C 108.695312 49.921875 111.484375 48.402344 114.320312 46.964844 C 117.152344 45.523438 120.027344 44.171875 122.941406 42.902344 C 125.855469 41.628906 128.800781 40.449219 131.785156 39.351562 C 134.769531 38.253906 137.78125 37.246094 140.824219 36.328125 C 143.867188 35.40625 146.933594 34.578125 150.023438 33.835938 C 153.113281 33.097656 156.222656 32.449219 159.355469 31.890625 C 162.484375 31.335938 165.625 30.871094 168.78125 30.5 C 171.9375 30.125 175.101562 29.847656 178.273438 29.660156 C 181.449219 29.472656 184.625 29.378906 187.800781 29.378906 C 190.980469 29.378906 194.15625 29.472656 197.328125 29.660156 C 200.5 29.847656 203.664062 30.125 206.820312 30.5 C 209.976562 30.871094 213.121094 31.335938 216.25 31.890625 C 219.378906 32.449219 222.488281 33.097656 225.582031 33.835938 C 228.671875 34.578125 231.738281 35.40625 234.78125 36.328125 C 237.820312 37.246094 240.835938 38.253906 243.816406 39.351562 C 246.800781 40.449219 249.75 41.628906 252.664062 42.902344 C 255.578125 44.171875 258.449219 45.523438 261.285156 46.964844 C 264.117188 48.402344 266.90625 49.921875 269.652344 51.523438 C 272.398438 53.128906 275.09375 54.808594 277.738281 56.570312 C 280.382812 58.332031 282.976562 60.167969 285.515625 62.078125 C 288.050781 63.992188 290.53125 65.980469 292.953125 68.039062 C 295.375 70.097656 297.734375 72.222656 300.03125 74.421875 C 302.328125 76.617188 304.558594 78.878906 306.71875 81.207031 C 308.882812 83.535156 310.976562 85.925781 313 88.378906 C 315.023438 90.828125 316.972656 93.335938 318.847656 95.902344 C 320.726562 98.46875 322.523438 101.085938 324.246094 103.757812 C 325.96875 106.429688 327.609375 109.148438 329.171875 111.917969 C 330.734375 114.683594 332.214844 117.496094 333.613281 120.347656 C 335.011719 123.203125 336.320312 126.097656 337.550781 129.027344 C 338.777344 131.960938 339.917969 134.925781 340.96875 137.925781 C 342.023438 140.921875 342.988281 143.949219 343.863281 147.003906 C 344.738281 150.0625 345.523438 153.140625 346.21875 156.242188 C 346.914062 159.34375 347.515625 162.460938 348.027344 165.597656 C 348.539062 168.734375 348.957031 171.882812 349.285156 175.046875 C 349.609375 178.207031 349.84375 181.375 349.984375 184.550781 C 350.125 187.726562 350.171875 190.902344 350.125 194.078125 C 350.082031 197.257812 349.941406 200.429688 349.707031 203.601562 C 349.476562 206.769531 349.152344 209.929688 348.730469 213.082031 C 348.3125 216.230469 347.804688 219.367188 347.203125 222.488281 C 346.597656 225.609375 345.90625 228.710938 345.121094 231.789062 C 344.335938 234.867188 343.464844 237.921875 342.5 240.953125 C 341.535156 243.980469 340.484375 246.976562 339.34375 249.945312 C 338.203125 252.910156 336.976562 255.84375 335.664062 258.738281 C 334.355469 261.632812 332.957031 264.484375 331.480469 267.300781 C 330 270.113281 328.4375 272.878906 326.796875 275.601562 C 325.152344 278.320312 323.433594 280.992188 321.632812 283.613281 C 319.835938 286.230469 317.960938 288.796875 316.011719 291.308594 C 314.0625 293.816406 312.039062 296.265625 309.945312 298.660156 C 307.851562 301.050781 305.691406 303.378906 303.460938 305.640625 C 301.230469 307.90625 298.9375 310.101562 296.578125 312.234375 C 294.21875 314.363281 291.796875 316.421875 289.316406 318.410156 C 286.835938 320.394531 284.300781 322.308594 281.707031 324.148438 C 279.117188 325.984375 276.472656 327.746094 273.777344 329.429688 C 271.078125 331.113281 268.335938 332.714844 265.546875 334.238281 C 262.757812 335.757812 259.925781 337.199219 257.050781 338.554688 C 254.175781 339.910156 251.261719 341.179688 248.3125 342.363281 C 245.363281 343.550781 242.382812 344.644531 239.371094 345.65625 Z M 239.371094 345.699219 " fill-opacity="1" fill-rule="evenodd"/></svg>