<svg xmlns="http://www.w3.org/2000/svg" xmlns:xlink="http://www.w3.org/1999/xlink" width="500" zoomAndPan="magnify" viewBox="0 0 375 374.999991" height="500" preserveAspectRatio="xMidYMid meet" version="1.0"><defs><g/></defs><rect x="-37.5" width="450" fill="#ffffff" y="-37.499999" height="449.999989" fill-opacity="1"/><rect x="-37.5" width="450" fill="#ffffff" y="-37.499999" height="449.999989" fill-opacity="1"/><rect x="-37.5" width="450" fill="#8a8ef8" y="-37.499999" height="449.999989" fill-opacity="1"/><g fill="#ffffff" fill-opacity="1"><g transform="translate(5.072918, 223.121557)"><g><path d="M 102.46875 -46.46875 C 102.46875 -34.15625 97.695312 -24.378906 88.15625 -17.140625 C 78.625 -9.910156 67.296875 -6.296875 54.171875 -6.296875 C 44.972656 -6.296875 31.378906 -8.390625 13.390625 -12.578125 C 13.253906 -15.554688 13.1875 -20.289062 13.1875 -26.78125 C 13.1875 -33.269531 13.796875 -42.332031 15.015625 -53.96875 C 18.941406 -53.96875 23.472656 -53.5625 28.609375 -52.75 C 28.609375 -52.207031 28.609375 -51.597656 28.609375 -50.921875 C 28.609375 -31.179688 37.46875 -21.3125 55.1875 -21.3125 C 61.007812 -21.3125 65.578125 -22.5625 68.890625 -25.0625 C 72.203125 -27.5625 73.859375 -31.144531 73.859375 -35.8125 C 73.859375 -40.476562 72.367188 -44.632812 69.390625 -48.28125 C 66.421875 -51.9375 62.664062 -54.914062 58.125 -57.21875 C 53.59375 -59.519531 48.691406 -62.15625 43.421875 -65.125 C 38.148438 -68.101562 33.242188 -71.179688 28.703125 -74.359375 C 24.171875 -77.546875 20.414062 -81.910156 17.4375 -87.453125 C 14.46875 -92.992188 12.984375 -99.421875 12.984375 -106.734375 C 12.984375 -118.492188 17.273438 -127.617188 25.859375 -134.109375 C 34.453125 -140.609375 44.835938 -143.859375 57.015625 -143.859375 C 69.191406 -143.859375 82.039062 -141.894531 95.5625 -137.96875 C 95.5625 -127.832031 94.617188 -116 92.734375 -102.46875 C 89.078125 -102.46875 85.554688 -102.671875 82.171875 -103.078125 C 79.742188 -120.796875 72.035156 -129.65625 59.046875 -129.65625 C 53.628906 -129.65625 49.09375 -128.367188 45.4375 -125.796875 C 41.789062 -123.234375 39.96875 -119.71875 39.96875 -115.25 C 39.96875 -110.789062 41.523438 -106.765625 44.640625 -103.171875 C 47.753906 -99.585938 51.609375 -96.679688 56.203125 -94.453125 C 60.804688 -92.222656 65.8125 -89.648438 71.21875 -86.734375 C 76.632812 -83.828125 81.640625 -80.851562 86.234375 -77.8125 C 90.835938 -74.769531 94.691406 -70.539062 97.796875 -65.125 C 100.910156 -59.71875 102.46875 -53.5 102.46875 -46.46875 Z M 102.46875 -46.46875 "/></g></g></g><g fill="#ffffff" fill-opacity="1"><g transform="translate(116.269052, 223.121557)"><g><path d="M 98 -38.953125 L 99.015625 -48.703125 L 99.015625 -49.3125 C 100.503906 -49.445312 102.597656 -49.515625 105.296875 -49.515625 C 108.003906 -49.515625 110.644531 -49.175781 113.21875 -48.5 C 113.894531 -39.570312 114.234375 -31.789062 114.234375 -25.15625 C 114.234375 -18.53125 114.164062 -13.1875 114.03125 -9.125 L 8.3125 -9.125 C 8.3125 -10.070312 8.3125 -11.628906 8.3125 -13.796875 C 8.3125 -15.960938 8.71875 -18.265625 9.53125 -20.703125 C 13.726562 -21.378906 16.90625 -22.5625 19.0625 -24.25 C 21.226562 -25.9375 22.3125 -28.8125 22.3125 -32.875 L 22.3125 -127.421875 C 18.9375 -128.910156 14.132812 -129.65625 7.90625 -129.65625 C 7.90625 -130.46875 7.90625 -131.851562 7.90625 -133.8125 C 7.90625 -135.78125 8.242188 -138.179688 8.921875 -141.015625 L 112.609375 -141.015625 C 112.609375 -138.179688 112.609375 -133.347656 112.609375 -126.515625 C 112.609375 -119.679688 112.203125 -111.9375 111.390625 -103.28125 C 108.148438 -103.007812 103.617188 -102.875 97.796875 -102.875 C 96.847656 -112.882812 95.765625 -119.109375 94.546875 -121.546875 C 92.523438 -126.140625 88.332031 -128.4375 81.96875 -128.4375 L 54.78125 -128.4375 L 54.78125 -81.5625 L 81.5625 -84.40625 L 90.5 -84.40625 L 90.5 -66.546875 L 81.5625 -66.546875 L 54.78125 -68.375 L 54.78125 -21.90625 L 82.171875 -21.90625 C 87.179688 -21.90625 90.972656 -23.394531 93.546875 -26.375 C 94.617188 -27.59375 95.5625 -29.585938 96.375 -32.359375 C 97.1875 -35.128906 97.726562 -37.328125 98 -38.953125 Z M 98 -38.953125 "/></g></g><g transform="translate(237.610798, 223.121557)"><g><path d="M 43.21875 -68.578125 L 72.03125 -68.578125 L 57.21875 -118.5 L 55.796875 -111.390625 Z M 68.578125 -9.125 C 68.578125 -14 68.78125 -17.859375 69.1875 -20.703125 C 75.6875 -22.179688 80.894531 -23.867188 84.8125 -25.765625 L 76.296875 -54.578125 L 38.953125 -54.578125 L 29.828125 -23.328125 C 32.941406 -21.578125 38.421875 -20.703125 46.265625 -20.703125 C 46.265625 -16.640625 45.992188 -12.78125 45.453125 -9.125 L 0 -9.125 C 0 -9.9375 0 -11.320312 0 -13.28125 C 0 -15.25 0.203125 -17.722656 0.609375 -20.703125 C 4.671875 -21.910156 7.75 -23.53125 9.84375 -25.5625 C 11.9375 -27.59375 13.660156 -30.4375 15.015625 -34.09375 L 49.71875 -140.8125 C 57.96875 -142.4375 68.851562 -143.382812 82.375 -143.65625 L 116.875 -33.484375 C 118.5 -28.609375 120.289062 -25.289062 122.25 -23.53125 C 124.207031 -21.78125 127.488281 -20.835938 132.09375 -20.703125 C 132.09375 -18.398438 131.820312 -14.539062 131.28125 -9.125 Z M 68.578125 -9.125 "/></g></g></g><g fill="#ffffff" fill-opacity="1"><g transform="translate(30.179319, 304.145223)"><g><path d="M 22.59375 -2.96875 C 17.34375 -2.96875 12.632812 -4.832031 8.46875 -8.5625 C 4.300781 -12.300781 2.21875 -17.671875 2.21875 -24.671875 C 2.21875 -31.679688 4.578125 -37.332031 9.296875 -41.625 C 14.023438 -45.914062 19.753906 -48.0625 26.484375 -48.0625 C 30.554688 -48.0625 34.597656 -47.195312 38.609375 -45.46875 C 38.546875 -42.195312 38.050781 -37.71875 37.125 -32.03125 C 35.957031 -32.03125 34.816406 -32.1875 33.703125 -32.5 C 33.390625 -35.21875 32.554688 -37.347656 31.203125 -38.890625 C 29.847656 -40.429688 28.179688 -41.203125 26.203125 -41.203125 C 20.398438 -41.203125 17.5 -36.28125 17.5 -26.4375 C 17.5 -16.59375 20.617188 -11.671875 26.859375 -11.671875 C 30.191406 -11.671875 34.140625 -12.566406 38.703125 -14.359375 L 40.828125 -11.015625 C 38.484375 -8.609375 35.691406 -6.664062 32.453125 -5.1875 C 29.210938 -3.707031 25.925781 -2.96875 22.59375 -2.96875 Z M 22.59375 -2.96875 "/></g></g></g><g fill="#ffffff" fill-opacity="1"><g transform="translate(71.65917, 304.145223)"><g><path d="M 23.703125 -59.390625 C 23.703125 -57.140625 22.929688 -55.226562 21.390625 -53.65625 C 19.847656 -52.082031 17.945312 -51.296875 15.6875 -51.296875 C 13.4375 -51.296875 11.507812 -52.082031 9.90625 -53.65625 C 8.300781 -55.226562 7.5 -57.140625 7.5 -59.390625 C 7.5 -61.648438 8.300781 -63.566406 9.90625 -65.140625 C 11.507812 -66.710938 13.4375 -67.5 15.6875 -67.5 C 17.945312 -67.5 19.847656 -66.710938 21.390625 -65.140625 C 22.929688 -63.566406 23.703125 -61.648438 23.703125 -59.390625 Z M 28.0625 -9.4375 C 28.0625 -9.070312 28.0625 -8.457031 28.0625 -7.59375 C 28.0625 -6.726562 27.9375 -5.585938 27.6875 -4.171875 L 2.21875 -4.171875 C 2.21875 -4.660156 2.21875 -5.382812 2.21875 -6.34375 C 2.21875 -7.300781 2.375 -8.332031 2.6875 -9.4375 C 4.59375 -9.75 6.039062 -10.289062 7.03125 -11.0625 C 8.019531 -11.832031 8.515625 -13.113281 8.515625 -14.90625 L 8.515625 -38.890625 C 7.585938 -39.015625 6.582031 -39.078125 5.5 -39.078125 C 4.425781 -39.078125 3.363281 -39.046875 2.3125 -38.984375 C 2.4375 -41.140625 2.710938 -42.867188 3.140625 -44.171875 C 9.128906 -46.203125 15.707031 -47.375 22.875 -47.6875 L 22.875 -10.375 C 24.351562 -9.75 26.082031 -9.4375 28.0625 -9.4375 Z M 28.0625 -9.4375 "/></g></g></g><g fill="#ffffff" fill-opacity="1"><g transform="translate(103.139405, 304.145223)"><g><path d="M 51.578125 -33.421875 L 51.578125 -10.46875 C 54.109375 -9.78125 56.175781 -9.4375 57.78125 -9.4375 C 57.78125 -9.070312 57.78125 -8.441406 57.78125 -7.546875 C 57.78125 -6.648438 57.625 -5.523438 57.3125 -4.171875 L 32.21875 -4.171875 C 32.15625 -4.660156 32.125 -5.335938 32.125 -6.203125 C 32.125 -7.066406 32.28125 -8.144531 32.59375 -9.4375 C 34.195312 -9.75 35.367188 -10.273438 36.109375 -11.015625 C 36.847656 -11.753906 37.21875 -13.050781 37.21875 -14.90625 L 37.21875 -31.578125 C 37.21875 -33.984375 36.660156 -35.785156 35.546875 -36.984375 C 34.441406 -38.191406 32.992188 -38.796875 31.203125 -38.796875 C 27.617188 -38.796875 24.84375 -36.019531 22.875 -30.46875 L 22.875 -10.375 C 24.351562 -9.75 26.082031 -9.4375 28.0625 -9.4375 C 28.0625 -9.070312 28.0625 -8.457031 28.0625 -7.59375 C 28.0625 -6.726562 27.9375 -5.585938 27.6875 -4.171875 L 2.21875 -4.171875 C 2.21875 -4.660156 2.21875 -5.382812 2.21875 -6.34375 C 2.21875 -7.300781 2.375 -8.332031 2.6875 -9.4375 C 4.59375 -9.75 6.039062 -10.289062 7.03125 -11.0625 C 8.019531 -11.832031 8.515625 -13.113281 8.515625 -14.90625 L 8.515625 -38.796875 C 7.585938 -38.921875 6.582031 -38.984375 5.5 -38.984375 C 4.425781 -38.984375 3.363281 -38.953125 2.3125 -38.890625 C 2.4375 -41.046875 2.710938 -42.742188 3.140625 -43.984375 C 8.765625 -46.015625 14.910156 -47.21875 21.578125 -47.59375 C 22.128906 -44.570312 22.5 -41.796875 22.6875 -39.265625 C 25.644531 -45.128906 30.488281 -48.0625 37.21875 -48.0625 C 41.539062 -48.0625 45.015625 -46.765625 47.640625 -44.171875 C 50.265625 -41.578125 51.578125 -37.992188 51.578125 -33.421875 Z M 51.578125 -33.421875 "/></g></g></g><g fill="#ffffff" fill-opacity="1"><g transform="translate(162.396335, 304.145223)"><g><path d="M 25 -41.203125 C 21.113281 -41.203125 18.707031 -37.835938 17.78125 -31.109375 L 25 -31.671875 L 29.171875 -31.859375 C 29.109375 -38.085938 27.71875 -41.203125 25 -41.203125 Z M 17.5 -26.109375 L 17.5 -25.921875 C 17.5 -16.359375 21.078125 -11.578125 28.234375 -11.578125 C 32.003906 -11.578125 36.296875 -12.503906 41.109375 -14.359375 L 43.234375 -11.015625 C 37.992188 -5.648438 31.640625 -2.96875 24.171875 -2.96875 C 19.046875 -2.96875 14.226562 -4.691406 9.71875 -8.140625 C 7.5 -9.804688 5.691406 -12.0625 4.296875 -14.90625 C 2.910156 -17.75 2.21875 -20.925781 2.21875 -24.4375 C 2.21875 -31.601562 4.53125 -37.332031 9.15625 -41.625 C 13.789062 -45.914062 19.441406 -48.0625 26.109375 -48.0625 C 30.554688 -48.0625 34.445312 -46.828125 37.78125 -44.359375 C 41.601562 -41.578125 43.515625 -36.757812 43.515625 -29.90625 C 43.023438 -28.425781 42.410156 -27.160156 41.671875 -26.109375 Z M 17.5 -26.109375 "/></g></g></g><g fill="#ffffff" fill-opacity="1"><g transform="translate(208.59823, 304.145223)"><g><path d="M 80.375 -33.421875 L 80.375 -10.46875 C 82.84375 -9.78125 84.878906 -9.4375 86.484375 -9.4375 C 86.484375 -9.070312 86.484375 -8.441406 86.484375 -7.546875 C 86.484375 -6.648438 86.328125 -5.523438 86.015625 -4.171875 L 60.921875 -4.171875 C 60.859375 -4.660156 60.828125 -5.335938 60.828125 -6.203125 C 60.828125 -7.066406 60.984375 -8.144531 61.296875 -9.4375 C 62.898438 -9.75 64.070312 -10.273438 64.8125 -11.015625 C 65.550781 -11.753906 65.921875 -13.050781 65.921875 -14.90625 L 65.921875 -31.578125 C 65.921875 -36.390625 63.945312 -38.796875 60 -38.796875 C 56.476562 -38.796875 53.671875 -36.019531 51.578125 -30.46875 L 51.578125 -10.375 C 53.054688 -9.75 54.8125 -9.4375 56.84375 -9.4375 C 56.84375 -9.070312 56.84375 -8.441406 56.84375 -7.546875 C 56.84375 -6.648438 56.691406 -5.523438 56.390625 -4.171875 L 32.21875 -4.171875 C 32.15625 -4.660156 32.125 -5.335938 32.125 -6.203125 C 32.125 -7.066406 32.28125 -8.144531 32.59375 -9.4375 C 34.195312 -9.75 35.367188 -10.273438 36.109375 -11.015625 C 36.847656 -11.753906 37.21875 -13.050781 37.21875 -14.90625 L 37.21875 -31.578125 C 37.21875 -33.984375 36.660156 -35.785156 35.546875 -36.984375 C 34.441406 -38.191406 32.992188 -38.796875 31.203125 -38.796875 C 27.617188 -38.796875 24.84375 -36.019531 22.875 -30.46875 L 22.875 -10.375 C 24.351562 -9.75 26.082031 -9.4375 28.0625 -9.4375 C 28.0625 -9.070312 28.0625 -8.457031 28.0625 -7.59375 C 28.0625 -6.726562 27.9375 -5.585938 27.6875 -4.171875 L 2.21875 -4.171875 C 2.21875 -4.660156 2.21875 -5.382812 2.21875 -6.34375 C 2.21875 -7.300781 2.375 -8.332031 2.6875 -9.4375 C 4.59375 -9.75 6.039062 -10.289062 7.03125 -11.0625 C 8.019531 -11.832031 8.515625 -13.113281 8.515625 -14.90625 L 8.515625 -38.796875 C 7.585938 -38.921875 6.582031 -38.984375 5.5 -38.984375 C 4.425781 -38.984375 3.363281 -38.953125 2.3125 -38.890625 C 2.4375 -41.046875 2.710938 -42.742188 3.140625 -43.984375 C 8.765625 -46.015625 14.910156 -47.21875 21.578125 -47.59375 C 22.128906 -44.570312 22.5 -41.796875 22.6875 -39.265625 C 25.644531 -45.128906 30.488281 -48.0625 37.21875 -48.0625 C 40.613281 -48.0625 43.53125 -47.226562 45.96875 -45.5625 C 48.40625 -43.894531 50.054688 -41.515625 50.921875 -38.421875 C 53.890625 -44.847656 58.890625 -48.0625 65.921875 -48.0625 C 70.242188 -48.0625 73.734375 -46.765625 76.390625 -44.171875 C 79.046875 -41.578125 80.375 -37.992188 80.375 -33.421875 Z M 80.375 -33.421875 "/></g></g></g><g fill="#ffffff" fill-opacity="1"><g transform="translate(297.576222, 304.145223)"><g><path d="M 17.5 -16.203125 C 17.5 -14.847656 17.851562 -13.753906 18.5625 -12.921875 C 19.269531 -12.085938 20.378906 -11.671875 21.890625 -11.671875 C 23.410156 -11.671875 24.785156 -12.410156 26.015625 -13.890625 L 26.015625 -24.078125 L 23.421875 -23.234375 C 19.472656 -22.003906 17.5 -19.660156 17.5 -16.203125 Z M 47.875 -8.890625 C 46.207031 -6.910156 44.585938 -5.425781 43.015625 -4.4375 C 41.441406 -3.457031 39.476562 -2.96875 37.125 -2.96875 C 34.78125 -2.96875 32.601562 -3.441406 30.59375 -4.390625 C 28.59375 -5.347656 27.222656 -6.660156 26.484375 -8.328125 C 23.640625 -4.753906 20.070312 -2.96875 15.78125 -2.96875 C 11.5 -2.96875 8.164062 -4.09375 5.78125 -6.34375 C 3.40625 -8.59375 2.21875 -11.476562 2.21875 -15 C 2.21875 -21.414062 6.539062 -25.488281 15.1875 -27.21875 L 26.015625 -29.359375 L 26.015625 -32.125 C 26.015625 -36.144531 23.671875 -38.15625 18.984375 -38.15625 C 15.585938 -38.15625 12.035156 -37.535156 8.328125 -36.296875 L 5.375 -40.65625 C 10.863281 -45.59375 17.375 -48.0625 24.90625 -48.0625 C 30.03125 -48.0625 33.875 -46.703125 36.4375 -43.984375 C 39 -41.265625 40.28125 -37.40625 40.28125 -32.40625 L 40.28125 -16.015625 C 40.28125 -12.992188 41.238281 -11.484375 43.15625 -11.484375 C 43.457031 -11.484375 44.597656 -11.664062 46.578125 -12.03125 Z M 47.875 -8.890625 "/></g></g></g></svg>