<svg xmlns="http://www.w3.org/2000/svg" xmlns:xlink="http://www.w3.org/1999/xlink" width="500" zoomAndPan="magnify" viewBox="0 0 375 374.999991" height="500" preserveAspectRatio="xMidYMid meet" version="1.0"><path fill="#0277b5" d="M 343.671875 0 L 31.515625 0 C 14.257812 0 0.375 14.070312 0.375 31.140625 L 0.375 343.859375 C 0.375 361.117188 14.445312 375 31.515625 375 L 343.484375 375 C 360.742188 375 374.625 360.929688 374.625 343.859375 L 374.625 31.140625 C 374.8125 14.070312 360.929688 0 343.671875 0 Z M 111.242188 309.34375 L 55.902344 309.34375 L 55.902344 143.132812 L 111.242188 143.132812 Z M 83.480469 123.0625 C 66.03125 123.0625 51.964844 108.992188 51.964844 91.546875 C 51.964844 74.097656 66.03125 60.03125 83.480469 60.03125 C 100.925781 60.03125 114.996094 74.097656 114.996094 91.546875 C 114.996094 108.992188 100.925781 123.0625 83.480469 123.0625 Z M 319.472656 309.34375 L 263.945312 309.34375 L 262.632812 210.667969 C 262.632812 210.667969 263.945312 184.40625 235.242188 184.59375 C 206.539062 184.78125 202.601562 210.667969 202.601562 210.667969 L 202.601562 309.34375 L 146.699219 309.34375 L 146.699219 143.132812 L 200.351562 143.132812 L 200.351562 166.019531 C 200.351562 166.019531 202.601562 158.515625 214.984375 149.699219 C 227.363281 140.882812 247.8125 139.007812 256.628906 139.382812 C 265.445312 139.757812 277.453125 138.257812 297.523438 152.136719 C 319.097656 166.957031 319.660156 205.789062 319.660156 205.789062 Z M 319.472656 309.34375 " fill-opacity="1" fill-rule="nonzero"/></svg>